{"title":"Listen Amaya 2013 Hindi Movies HD DVDRip XviD New Source Sample ","uid":8646729,"size":734439744,"categoryP":"video","categoryS":"movies","magnet":"?xt=urn:btih:9af54f7fb05d4d35da7904f8c6b77af660748a3a&amp;dn=Listen+Amaya+2013+Hindi+Movies+HD+DVDRip+XviD+New+Source+Sample+&amp;tr=udp%3A%2F%2Ftracker.openbittorrent.com%3A80&amp;tr=udp%3A%2F%2Fopen.demonii.com%3A1337&amp;tr=udp%3A%2F%2Ftracker.coppersurfer.tk%3A6969&amp;tr=udp%3A%2F%2Fexodus.desync.com%3A6969","seeders":0,"leechers":4,"uploader":"basicssom","files":2,"time":1373006867,"description":"Listen Amaya 2013 Hindi Movies HD DVDRip XviD New Source Sample Included ~ â˜»rDXâ˜»\n\nScreen Shots :\n &lt;a href=&quot;\nhttp://myimghosting.serveftp.com/13/ListenAmaya.html&quot; rel=&quot;nofollow&quot; target=&quot;_NEW&quot;&gt;\nhttp://myimghosting.serveftp.com/13/ListenAmaya.html&lt;/a&gt;\n &lt;a href=&quot;\nhttp://myimghost.cwahi.net/ListenAmaya.html&quot; rel=&quot;nofollow&quot; target=&quot;_NEW&quot;&gt;\nhttp://myimghost.cwahi.net/ListenAmaya.html&lt;/a&gt;\n &lt;a href=&quot;\nhttp://users2.jabry.com/myimghost/ListenAmaya/ListenAmaya.jpg&quot; rel=&quot;nofollow&quot; target=&quot;_NEW&quot;&gt;\nhttp://users2.jabry.com/myimghost/ListenAmaya/ListenAmaya.jpg&lt;/a&gt;\n\nFormat                                   : AVI\nFormat/Info                              : Audio Video Interleave\nFile size                                : 678 MiB\nDuration                                 : 1h 40mn\nOverall bit rate mode                    : Variable\nOverall bit rate                         : 941 Kbps\nWriting library                          : MPlayer\n\nVideo\nID                                       : 0\nFormat                                   : MPEG-4 Visual\nFormat profile                           : Advanced Simple@L5\nFormat settings, BVOP                    : 3\nFormat settings, QPel                    : No\nFormat settings, GMC                     : No warppoints\nFormat settings, Matrix                  : Default (H.263)\nCodec ID                                 : XVID\nCodec ID/Hint                            : XviD\nDuration                                 : 1h 40mn\nBit rate                                 : 842 Kbps\nWidth                                    : 672 pixels\nHeight                                   : 288 pixels\nDisplay aspect ratio                     : 2.35:1\nFrame rate                               : 25.000 fps\nColor space                              : YUV\nChroma subsampling                       : 4:2:0\nBit depth                                : 8 bits\nScan type                                : Progressive\nCompression mode                         : Lossy\nBits/(Pixel*Frame)                       : 0.174\nStream size                              : 607 MiB (89%)\nWriting library                          : XviD 1.2.1 (UTC 2008-12-04)\n\nAudio\nID                                       : 1\nFormat                                   : MPEG Audio\nFormat version                           : Version 1\nFormat profile                           : Layer 3\nMode                                     : Joint stereo\nMode extension                           : MS Stereo\nCodec ID                                 : 55\nCodec ID/Hint                            : MP3\nDuration                                 : 1h 40mn\nBit rate mode                            : Variable\nBit rate                                 : 88.8 Kbps\nChannel(s)                               : 2 channels\nSampling rate                            : 32.0 KHz\nCompression mode                         : Lossy\nStream size                              : 64.0 MiB (9%)\nAlignment                                : Aligned on interleaves\nInterleave, duration                     : 36 ms (0.90 video frame)\nInterleave, preload duration             : 454 ms\nWriting library                          : LAME3.99.5","torrent":{"xt":"urn:btih:9af54f7fb05d4d35da7904f8c6b77af660748a3a","amp;dn":"Listen+Amaya+2013+Hindi+Movies+HD+DVDRip+XviD+New+Source+Sample+","amp;tr":["udp%3A%2F%2Ftracker.openbittorrent.com%3A80","udp%3A%2F%2Fopen.demonii.com%3A1337","udp%3A%2F%2Ftracker.coppersurfer.tk%3A6969","udp%3A%2F%2Fexodus.desync.com%3A6969"],"infoHash":"9af54f7fb05d4d35da7904f8c6b77af660748a3a","infoHashBuffer":{"type":"Buffer","data":[154,245,79,127,176,93,77,53,218,121,4,248,198,183,122,246,96,116,138,58]},"announce":[],"urlList":[]}}